<?xml version="1.0" standalone="no"?>
<!DOCTYPE svg PUBLIC "-//W3C//DTD SVG 20010904//EN"
 "http://www.w3.org/TR/2001/REC-SVG-20010904/DTD/svg10.dtd">
<svg version="1.0" xmlns="http://www.w3.org/2000/svg"
 width="458.000000pt" height="314.000000pt" viewBox="0 0 458.000000 314.000000"
 preserveAspectRatio="xMidYMid meet">

<g transform="translate(0.000000,314.000000) scale(0.100000,-0.100000)"
fill="#000000" stroke="none">
<path d="M1640 2539 c0 -272 2 -310 15 -305 8 3 163 111 345 240 181 129 340
240 352 247 13 6 -142 -155 -345 -357 l-367 -369 -373 373 -372 372 -318 0
-317 0 0 -1305 0 -1305 315 0 315 0 0 980 c0 645 3 980 10 980 5 0 173 -162
372 -360 199 -198 364 -360 367 -360 4 0 170 164 370 364 201 201 368 363 373
360 4 -3 8 -277 8 -608 l0 -604 34 -6 c39 -7 263 8 348 24 205 39 377 141 453
269 17 28 34 51 38 51 9 0 1 -53 -20 -130 -55 -202 -286 -351 -603 -390 -52
-6 -171 -10 -265 -8 l-170 3 -2 474 c-2 261 -5 476 -8 480 -3 3 -128 -117
-278 -267 -150 -150 -277 -272 -282 -272 -6 0 -93 84 -195 186 -219 220 -316
315 -305 294 5 -8 119 -193 254 -410 l246 -395 5 -330 5 -330 725 0 c655 0
735 2 827 18 201 36 392 113 546 220 310 217 497 506 578 892 17 79 17 349 0
450 -80 484 -428 903 -886 1065 -213 76 -183 73 -1032 77 l-763 4 0 -312z"/>
</g>
</svg>
